<svg id="Layer_1" data-name="Layer 1" xmlns="http://www.w3.org/2000/svg" viewBox="0 0 947.5 167"><defs><style>.cls-1{isolation:isolate;}.cls-2{fill:#fff;}</style></defs><title>barras</title><g class="cls-1"><path class="cls-2" d="M36.87939,143.4744V24.35721h22.4502q18.36035,0,31.20654,4.70606A53.80592,53.80592,0,0,1,112.562,44.10721Q126.9878,60.386,126.98877,83.9158q0,23.53125-14.42676,39.8086a55.02659,55.02659,0,0,1-22.1416,15.04394q-12.80713,4.70655-31.09082,4.70606Zm13.11524-12.49805h9.18066q14.11817,0,24.26319-3.16308a41.16973,41.16973,0,0,0,17.78271-11.18653q11.87988-12.42041,11.88086-32.71094,0-20.28954-11.88086-32.71093A41.18785,41.18785,0,0,0,83.43848,40.01834Q73.293,36.85576,59.17529,36.85526H49.99463Z"/><path class="cls-2" d="M173.481,143.4744V24.35721h63.72461v11.958H186.59619V74.88944h48.06348V86.7703H186.59619v44.82324h50.60938V143.4744Z"/><path class="cls-2" d="M284.39209,143.4744V24.35721h13.11523V131.59354H343.3335V143.4744Z"/><path class="cls-2" d="M384.19385,143.4744V24.35721h13.11523V143.4744Z"/><path class="cls-2" d="M436.00928,24.35721h14.6582l36.80029,91.80664,36.18262-91.80664h14.11816l-50.60937,124.209Z"/><path class="cls-2" d="M576.5459,143.4744V24.35721h63.72461v11.958H589.66113V74.88944h48.06348V86.7703H589.66113v44.82324h50.60938V143.4744Z"/><path class="cls-2" d="M687.457,143.4744V24.35721h15.96973q3.47168,0,7.52246.07715,4.04883.07764,8.75586.23144,16.27734.69435,25.459,9.72071,9.18018,9.02637,9.18067,22.99023,0,12.80714-7.52246,21.37012-7.52052,8.56347-20.48243,10.72363l35.874,54.00391H746.24414l-34.4082-52.92383H700.57227V143.4744Zm13.11524-65.42188h9.79785q2.54589,0,5.24609-.11621,2.69971-.11573,5.40039-.34668a23.18338,23.18338,0,0,0,14.19531-5.94043q5.5547-5.168,5.55469-14.11816a21.46222,21.46222,0,0,0-2.77734-11.10938,16.70949,16.70949,0,0,0-7.86914-6.94336,25.56869,25.56869,0,0,0-8.02344-2.04492q-4.39746-.42333-13.26953-.42383h-8.25488Z"/><path class="cls-2" d="M783.47754,24.35721h14.6582l32.55664,53.84961,32.40235-53.84961h14.041L837.01855,91.01346V143.4744H823.749V92.09354Z"/></g></svg>