<svg id="Layer_1" data-name="Layer 1" xmlns="http://www.w3.org/2000/svg" viewBox="0 0 1639.96207 167"><defs><style>.cls-1{isolation:isolate;}.cls-2{fill:#fff;}</style></defs><title>barras</title><g class="cls-1"><path class="cls-2" d="M35.87988,143.47342V24.35623H62.80469q16.12353,0,25.49756,8.87207a28.7954,28.7954,0,0,1,9.37353,21.75586,29.30313,29.30313,0,0,1-3.39453,14.34961A27.97439,27.97439,0,0,1,84.09766,79.67166a31.54281,31.54281,0,0,1,16.58691,11.26368,30.1424,30.1424,0,0,1,6.78906,19.21q0,16.04736-10.33789,24.6875-10.33887,8.64111-28.39062,8.64062ZM48.99512,75.19705H61.95605q10.415,0,16.35547-4.82128,5.93994-4.8208,5.94043-14.08008,0-9.25782-5.86328-14.61914-5.86377-5.36133-16.89551-5.36231h-12.498Zm0,56.39551H67.81934q11.72607,0,18.90136-5.82422,7.17482-5.82421,7.17481-15.93164,0-10.415-7.40625-16.20117T67.35645,87.8494H48.99512Z"/><path class="cls-2" d="M136.99316,143.47342,190.84277,20.576l53.84961,122.89746h-14.6582L215.68457,109.8367H165.69238l-14.34961,33.63672Zm33.791-45.51758h39.96289l-19.9043-47.67773Z"/><path class="cls-2" d="M283.39258,143.47342V24.35623h13.11523V73.96268L348.043,24.35623h17.0498L309.00586,78.05155l58.01562,65.42187h-17.0498L300.21094,87.07791l-3.70313,3.78028v52.61523Z"/><path class="cls-2" d="M406.10742,143.47342V24.35623H469.832v11.958H419.22266V74.88846h48.06347V86.76932H419.22266v44.82324H469.832v11.88086Z"/><path class="cls-2" d="M517.01855,143.47342V24.35623h15.96973q3.47168,0,7.52246.07715,4.04883.07764,8.75586.23145,16.27734.69434,25.459,9.7207,9.18016,9.02637,9.18066,22.99024,0,12.80712-7.52246,21.37011-7.5205,8.56349-20.48242,10.72364l35.874,54.0039H575.80566l-34.4082-52.92383H530.13379v52.92383Zm13.11524-65.42187h9.79785q2.5459,0,5.24609-.11524,2.69971-.11573,5.40039-.34765a23.18349,23.18349,0,0,0,14.19532-5.94043q5.55468-5.168,5.55468-14.11817a21.46218,21.46218,0,0,0-2.77734-11.10937,16.70943,16.70943,0,0,0-7.86914-6.94336,25.5679,25.5679,0,0,0-8.02344-2.044q-4.39746-.42333-13.26953-.4248h-8.25488Z"/><path class="cls-2" d="M613.04,24.35623h14.6582l32.55664,53.84961,32.40235-53.84961h14.041L666.58105,91.01248v52.46094H653.31152V92.09256Z"/><path class="cls-2" d="M772.168,84.06913a63.4511,63.4511,0,0,1,5.0918-25.18848A62.03389,62.03389,0,0,1,791.918,37.93436a61.16588,61.16588,0,0,1,19.5957-12.22754A64.34091,64.34091,0,0,1,834.58105,21.656a66.02207,66.02207,0,0,1,19.86622,2.89355,56.93734,56.93734,0,0,1,16.93359,8.60157V49.42948A47.01022,47.01022,0,0,0,855.02539,38.1658a52.33673,52.33673,0,0,0-20.44434-4.01171,47.49137,47.49137,0,0,0-19.55761,3.97363,49.18279,49.18279,0,0,0-16.16211,11.8418,46.89184,46.89184,0,0,0-9.72071,15.50683,52.56723,52.56723,0,0,0-3.24023,18.74707,52.65565,52.65565,0,0,0,4.39746,21.52442,47.55786,47.55786,0,0,0,12.65235,17.0498,44.88619,44.88619,0,0,0,14.5039,8.293,52.17631,52.17631,0,0,0,17.12695,2.73926,59.57224,59.57224,0,0,0,20.36719-3.31739,48.56314,48.56314,0,0,0,16.43262-9.95214V135.45a55.09976,55.09976,0,0,1-16.70313,8.13868,70.34114,70.34114,0,0,1-20.09668,2.73925,68.70341,68.70341,0,0,1-22.71972-3.58691,55.55583,55.55583,0,0,1-18.55469-10.83984,58.62842,58.62842,0,0,1-15.73828-21.17774A65.57587,65.57587,0,0,1,772.168,84.06913Z"/><path class="cls-2" d="M916.94727,143.47342V24.35623H930.0625V131.59256h45.82617v11.88086Z"/><path class="cls-2" d="M1005.09961,143.47342,1058.94922,20.576l53.84961,122.89746h-14.65821L1083.791,109.8367h-49.99219l-14.34961,33.63672Zm33.791-45.51758h39.9629l-19.9043-47.67773Z"/><path class="cls-2" d="M1142.24121,115.00565l12.5752-4.70606a35.79056,35.79056,0,0,0,10.53027,17.08789,25.78109,25.78109,0,0,0,17.32031,6.44239h.3086a32.06479,32.06479,0,0,0,9.99023-1.42676,19.9278,19.9278,0,0,0,7.44531-4.28223,18.82314,18.82314,0,0,0,4.62891-6.48047,20.88376,20.88376,0,0,0,1.62012-7.86914,20.21433,20.21433,0,0,0-3.35645-11.64941q-3.35449-4.93653-10.53027-9.18066l-22.1416-11.26368q-10.64649-5.39941-16.124-12.80664a28.63211,28.63211,0,0,1-5.47754-17.51269,27.57539,27.57539,0,0,1,2.31446-11.10938,31.48339,31.48339,0,0,1,6.48047-9.5664,30.17234,30.17234,0,0,1,10.68554-6.67286,39.55486,39.55486,0,0,1,14.31055-2.50781,37.27218,37.27218,0,0,1,12.498,2.04492,30.27742,30.27742,0,0,1,9.875,5.59278,41.82776,41.82776,0,0,1,6.98242,7.71484,37.808,37.808,0,0,1,4.58984,8.94922l-11.958,4.9375a30.82221,30.82221,0,0,0-3.08593-5.82422,31.74831,31.74831,0,0,0-4.55176-5.28515,20.80881,20.80881,0,0,0-6.55762-3.97266,22.95134,22.95134,0,0,0-8.40918-1.50488q-9.18163,0-14.38867,4.86035a15.8039,15.8039,0,0,0-5.207,12.03515,15.57426,15.57426,0,0,0,3.81836,10.7627,37.82844,37.82844,0,0,0,10.68554,7.90723L1198.791,80.59745q10.87793,5.63232,16.31738,13.65527a32.08732,32.08732,0,0,1,5.43848,18.43848,34.99382,34.99382,0,0,1-2.39161,13.03808,31.22642,31.22642,0,0,1-7.0205,10.64649,32.04535,32.04535,0,0,1-12.03516,7.291,49.31249,49.31249,0,0,1-16.74121,2.66113q-15.12159,0-25.72852-8.94921A44.34753,44.34753,0,0,1,1142.24121,115.00565Z"/><path class="cls-2" d="M1257.24121,115.00565l12.5752-4.70606a35.79056,35.79056,0,0,0,10.53027,17.08789,25.78109,25.78109,0,0,0,17.32031,6.44239h.3086a32.06479,32.06479,0,0,0,9.99023-1.42676,19.9278,19.9278,0,0,0,7.44531-4.28223,18.82314,18.82314,0,0,0,4.62891-6.48047,20.88376,20.88376,0,0,0,1.62012-7.86914,20.21433,20.21433,0,0,0-3.35645-11.64941q-3.35449-4.93653-10.53027-9.18066l-22.1416-11.26368q-10.64649-5.39941-16.124-12.80664a28.63211,28.63211,0,0,1-5.47754-17.51269,27.57539,27.57539,0,0,1,2.31446-11.10938,31.48339,31.48339,0,0,1,6.48047-9.5664,30.17234,30.17234,0,0,1,10.68554-6.67286,39.55486,39.55486,0,0,1,14.31055-2.50781,37.27218,37.27218,0,0,1,12.498,2.04492,30.27742,30.27742,0,0,1,9.875,5.59278,41.82776,41.82776,0,0,1,6.98242,7.71484,37.808,37.808,0,0,1,4.58984,8.94922l-11.958,4.9375a30.82221,30.82221,0,0,0-3.08593-5.82422,31.74831,31.74831,0,0,0-4.55176-5.28515,20.80881,20.80881,0,0,0-6.55762-3.97266,22.95134,22.95134,0,0,0-8.40918-1.50488q-9.18163,0-14.38867,4.86035a15.8039,15.8039,0,0,0-5.207,12.03515,15.57426,15.57426,0,0,0,3.81836,10.7627,37.82844,37.82844,0,0,0,10.68554,7.90723L1313.791,80.59745q10.87793,5.63232,16.31738,13.65527a32.08732,32.08732,0,0,1,5.43848,18.43848,34.99382,34.99382,0,0,1-2.39161,13.03808,31.22642,31.22642,0,0,1-7.0205,10.64649,32.04535,32.04535,0,0,1-12.03516,7.291,49.31249,49.31249,0,0,1-16.74121,2.66113q-15.12159,0-25.72852-8.94921A44.34753,44.34753,0,0,1,1257.24121,115.00565Z"/><path class="cls-2" d="M1381.499,143.47342V24.35623h63.72461v11.958h-50.60937V74.88846h48.06347V86.76932h-48.06347v44.82324h50.60937v11.88086Z"/><path class="cls-2" d="M1483.15137,115.00565l12.57519-4.70606a35.79065,35.79065,0,0,0,10.53028,17.08789,25.78105,25.78105,0,0,0,17.32031,6.44239h.30859a32.06481,32.06481,0,0,0,9.99024-1.42676,19.92788,19.92788,0,0,0,7.44531-4.28223,18.82314,18.82314,0,0,0,4.62891-6.48047,20.88375,20.88375,0,0,0,1.62011-7.86914,20.21433,20.21433,0,0,0-3.35644-11.64941q-3.3545-4.93653-10.53028-9.18066L1511.542,81.67752q-10.64647-5.39941-16.124-12.80664a28.632,28.632,0,0,1-5.47754-17.51269,27.57538,27.57538,0,0,1,2.31445-11.10938,31.48357,31.48357,0,0,1,6.48047-9.5664,30.17239,30.17239,0,0,1,10.68555-6.67286,39.55478,39.55478,0,0,1,14.31055-2.50781,37.27212,37.27212,0,0,1,12.498,2.04492,30.27732,30.27732,0,0,1,9.875,5.59278,41.827,41.827,0,0,1,6.98242,7.71484,37.80806,37.80806,0,0,1,4.58985,8.94922l-11.958,4.9375a30.82168,30.82168,0,0,0-3.08594-5.82422,31.74738,31.74738,0,0,0-4.55176-5.28515,20.80876,20.80876,0,0,0-6.55761-3.97266,22.95138,22.95138,0,0,0-8.40918-1.50488q-9.18165,0-14.38867,4.86035a15.80388,15.80388,0,0,0-5.207,12.03515,15.57426,15.57426,0,0,0,3.81836,10.7627,37.82865,37.82865,0,0,0,10.68555,7.90723l21.67871,10.87793q10.87792,5.63232,16.31738,13.65527a32.08732,32.08732,0,0,1,5.43848,18.43848,34.99382,34.99382,0,0,1-2.3916,13.03808,31.22645,31.22645,0,0,1-7.02051,10.64649,32.04531,32.04531,0,0,1-12.03515,7.291,49.31251,49.31251,0,0,1-16.74122,2.66113q-15.12157,0-25.72851-8.94921A44.34753,44.34753,0,0,1,1483.15137,115.00565Z"/></g></svg>