<svg id="Layer_1" data-name="Layer 1" xmlns="http://www.w3.org/2000/svg" viewBox="0 0 1197.3569 167"><defs><style>.cls-1{isolation:isolate;}.cls-2{fill:#e8361b;}</style></defs><title>homepage-hover</title><g class="cls-1"><path class="cls-2" d="M22.68408,24.35721H36.87939l29.39356,88.335L101.22119,23.74,136.478,112.69217l29.85644-88.335H179.604L137.24951,147.71756,101.22119,55.60233,64.57568,147.71756Z"/><path class="cls-2" d="M219.30713,143.4744V24.35721h63.72461v11.958H232.42236V74.88944h48.06348V86.7703H232.42236v44.82324h50.60938V143.4744Z"/><path class="cls-2" d="M393.22021,143.4744V24.35721h22.4502q18.36034,0,31.20605,4.70606a53.80109,53.80109,0,0,1,22.02637,15.04394Q483.32935,60.386,483.33008,83.9158q0,23.53125-14.42725,39.8086a55.02659,55.02659,0,0,1-22.1416,15.04394q-12.80714,4.70655-31.09082,4.70606Zm13.11524-12.49805h9.18066q14.11816,0,24.2627-3.16308a41.17129,41.17129,0,0,0,17.7832-11.18653q11.87988-12.42041,11.88086-32.71094,0-20.28954-11.88086-32.71093a41.18941,41.18941,0,0,0-17.7832-11.18653q-10.14551-3.16258-24.2627-3.16308h-9.18066Z"/><path class="cls-2" d="M529.82227,143.4744V24.35721h63.72461v11.958H542.9375V74.88944H591.001V86.7703H542.9375v44.82324h50.60938V143.4744Z"/><path class="cls-2" d="M640.7334,143.4744V24.35721h13.11523V131.59354H699.6748V143.4744Z"/><path class="cls-2" d="M740.53516,143.4744V24.35721h13.11523V143.4744Z"/><path class="cls-2" d="M792.35059,24.35721h14.6582l36.7998,91.80664,36.18262-91.80664h14.11817L843.5,148.5662Z"/><path class="cls-2" d="M932.88574,143.4744V24.35721h63.72461v11.958H946.001V74.88944h48.06347V86.7703H946.001v44.82324h50.60937V143.4744Z"/><path class="cls-2" d="M1043.79688,143.4744V24.35721h15.96972q3.47168,0,7.52246.07715,4.04883.07764,8.75586.23144,16.27734.69435,25.459,9.72071,9.18017,9.02637,9.18066,22.99023,0,12.80714-7.52246,21.37012-7.52051,8.56347-20.48242,10.72363l35.874,54.00391H1102.584l-34.4082-52.92383h-11.26367V143.4744Zm13.11523-65.42188H1066.71q2.54591,0,5.24609-.11621,2.69971-.11573,5.4004-.34668a23.18343,23.18343,0,0,0,14.19531-5.94043q5.55468-5.168,5.55469-14.11816a21.46222,21.46222,0,0,0-2.77735-11.10938A16.70949,16.70949,0,0,0,1086.46,39.4783a25.56869,25.56869,0,0,0-8.02344-2.04492q-4.39746-.42333-13.26953-.42383h-8.25488Z"/></g></svg>