<svg id="Layer_1" data-name="Layer 1" xmlns="http://www.w3.org/2000/svg" viewBox="0 0 1194.19445 167"><defs><style>.cls-1{isolation:isolate;}.cls-2{fill:#fff;}</style></defs><title>homepage</title><g class="cls-1"><path class="cls-2" d="M36.87939,143.47538V24.35819H49.99463V143.47538Z"/><path class="cls-2" d="M103.97021,143.47538V22.58377l87.25489,91.34375V24.35819h13.11523V145.71268L117.08545,54.21463v89.26075Z"/><path class="cls-2" d="M249.2124,115.0076l12.5752-4.706a35.79074,35.79074,0,0,0,10.53027,17.08789,25.78113,25.78113,0,0,0,17.32031,6.44238h.3086a32.06479,32.06479,0,0,0,9.99023-1.42676,19.9277,19.9277,0,0,0,7.44531-4.28222,18.82324,18.82324,0,0,0,4.62891-6.48047,20.8838,20.8838,0,0,0,1.62012-7.86914,20.21436,20.21436,0,0,0-3.35645-11.64942q-3.3545-4.93651-10.53027-9.18066L277.603,81.67948q-10.64649-5.39941-16.124-12.80664a28.63214,28.63214,0,0,1-5.47754-17.5127,27.57531,27.57531,0,0,1,2.31446-11.10937,31.48344,31.48344,0,0,1,6.48047-9.56641,30.17413,30.17413,0,0,1,10.68554-6.67383,39.55451,39.55451,0,0,1,14.31055-2.50683,37.272,37.272,0,0,1,12.498,2.04394,30.27921,30.27921,0,0,1,9.875,5.59375,41.82776,41.82776,0,0,1,6.98242,7.71484,37.80821,37.80821,0,0,1,4.58984,8.94922l-11.958,4.9375a30.83087,30.83087,0,0,0-3.08594-5.82519,31.74275,31.74275,0,0,0-4.55176-5.28418A20.81077,20.81077,0,0,0,297.58447,35.66a22.95108,22.95108,0,0,0-8.40918-1.50391q-9.18164,0-14.38867,4.86035a15.80393,15.80393,0,0,0-5.207,12.03516A15.57179,15.57179,0,0,0,273.398,61.81327a37.82955,37.82955,0,0,0,10.68555,7.9082L305.76221,80.5994q10.87793,5.63232,16.31738,13.65527a32.08732,32.08732,0,0,1,5.43848,18.43848,34.99378,34.99378,0,0,1-2.39161,13.03808,31.22642,31.22642,0,0,1-7.0205,10.64649,32.04522,32.04522,0,0,1-12.03516,7.291,49.31244,49.31244,0,0,1-16.74121,2.66114q-15.12158,0-25.72852-8.94922A44.34753,44.34753,0,0,1,249.2124,115.0076Z"/><path class="cls-2" d="M356.26611,36.3162v-11.958h80.38868v11.958H403.01807V143.47538H389.74854V36.3162Z"/><path class="cls-2" d="M446.50146,143.47538l53.8501-122.89747,53.84961,122.89747H539.543l-14.34961-33.63672H475.20117l-14.3501,33.63672ZM480.293,97.9578h39.96289l-19.9043-47.67774Z"/><path class="cls-2" d="M578.86035,84.07108A65.09871,65.09871,0,0,1,595.833,40.25077a57.8446,57.8446,0,0,1,19.67285-13.65528,62.83665,62.83665,0,0,1,25.30469-5.09179,59.17531,59.17531,0,0,1,29.16211,7.13574q12.88329,7.13672,22.29589,21.48633l-11.03222,7.71484q-7.6377-11.87988-17.78223-17.86035a44.063,44.063,0,0,0-22.79785-5.97852,48.50023,48.50023,0,0,0-19.5957,3.93457A44.47322,44.47322,0,0,0,605.8623,48.5828a49.21333,49.21333,0,0,0-9.75976,16.00781,54.69754,54.69754,0,0,0-3.50977,19.63477,50.5252,50.5252,0,0,0,4.01172,20.09667A47.64835,47.64835,0,0,0,607.251,120.0994a49.5956,49.5956,0,0,0,15.31445,10.06738,45.65063,45.65063,0,0,0,17.93652,3.665q17.82129,0,29.47071-10.2998,11.64843-10.29786,14.27246-27.27149H649.45117V84.37967h50.14649q-.4629,17.97657-7.59864,31.93946a53.62193,53.62193,0,0,1-20.4834,21.9873,54.87083,54.87083,0,0,1-14.42675,6.01758,65.75817,65.75817,0,0,1-16.58692,2.00586,61.14736,61.14736,0,0,1-24.64941-5.01465,59.34942,59.34942,0,0,1-19.55664-13.42383,63.96123,63.96123,0,0,1-17.43555-43.82031Z"/><path class="cls-2" d="M745.31836,143.47538V24.35819h15.96973q3.47168,0,7.52246.07715,4.04883.07762,8.75586.23144,16.27734.69434,25.459,9.7207,9.18018,9.02637,9.18066,22.99024,0,12.80712-7.52246,21.37012-7.5205,8.56347-20.48242,10.72363l35.874,54.00391H804.10547l-34.4082-52.92383H758.43359v52.92383ZM758.43359,78.0535h9.79786q2.54589,0,5.24609-.11621,2.6997-.11573,5.40039-.34668a23.18338,23.18338,0,0,0,14.19531-5.94043q5.55469-5.168,5.55469-14.11816a21.46222,21.46222,0,0,0-2.77734-11.10938,16.70948,16.70948,0,0,0-7.86914-6.94336,25.56815,25.56815,0,0,0-8.02344-2.04492q-4.39746-.42334-13.26953-.42383h-8.25489Z"/><path class="cls-2" d="M850.21191,143.47538,904.06152,20.57791l53.84961,122.89747h-14.6582l-14.34961-33.63672H878.91113l-14.34961,33.63672Zm33.791-45.51758h39.96289l-19.9043-47.67774Z"/><path class="cls-2" d="M983.64941,143.47538l29.7793-121.97168,36.9541,92.42382,37.1084-92.42382,29.54785,121.97168h-13.88672l-19.5957-82.00879-33.17383,84.09179-33.32812-84.24609L997.459,143.47538Z"/></g></svg>