<?xml version="1.0" encoding="utf-8"?>
<!-- Generator: Adobe Illustrator 24.0.0, SVG Export Plug-In . SVG Version: 6.00 Build 0)  -->
<svg version="1.1" id="Layer_1" xmlns="http://www.w3.org/2000/svg" xmlns:xlink="http://www.w3.org/1999/xlink" x="0px" y="0px"
	 viewBox="0 0 1791.5 167" style="enable-background:new 0 0 1791.5 167;" xml:space="preserve">
<style type="text/css">
	.st0{fill:#FFFFFF;}
</style>
<title>barras</title>
<g>
	<path class="st0" d="M36.9,143.5V24.4h22.5c12.2,0,22.6,1.6,31.2,4.7c8.5,3.1,16.1,8.3,22,15C122.2,55,127,68.2,127,83.9
		c0,15.7-4.8,29-14.4,39.8c-6,6.8-13.6,11.9-22.1,15c-8.5,3.1-18.9,4.7-31.1,4.7H36.9z M50,131h9.2c9.4,0,17.5-1.1,24.3-3.2
		c6.8-2.1,12.9-6,17.8-11.2c7.9-8.3,11.9-19.2,11.9-32.7c0-13.5-4-24.4-11.9-32.7c-4.9-5.2-11-9.1-17.8-11.2
		c-6.8-2.1-14.9-3.2-24.3-3.2H50V131z"/>
	<path class="st0" d="M173.5,143.5V24.4h63.7v12h-50.6v38.6h48.1v11.9h-48.1v44.8h50.6v11.9H173.5z"/>
	<path class="st0" d="M284.4,143.5V24.4h13.1v107.2h45.8v11.9H284.4z"/>
	<path class="st0" d="M384.2,143.5V24.4h13.1v119.1H384.2z"/>
	<path class="st0" d="M436,24.4h14.7l36.8,91.8l36.2-91.8h14.1l-50.6,124.2L436,24.4z"/>
	<path class="st0" d="M576.5,143.5V24.4h63.7v12h-50.6v38.6h48.1v11.9h-48.1v44.8h50.6v11.9H576.5z"/>
	<path class="st0" d="M687.5,143.5V24.4h16c2.3,0,4.8,0,7.5,0.1c2.7,0.1,5.6,0.1,8.8,0.2c10.9,0.5,19.3,3.7,25.5,9.7
		c6.1,6,9.2,13.7,9.2,23c0,8.5-2.5,15.7-7.5,21.4c-5,5.7-11.8,9.3-20.5,10.7l35.9,54h-16l-34.4-52.9h-11.3v52.9H687.5z M700.6,78.1
		h9.8c1.7,0,3.4,0,5.2-0.1c1.8-0.1,3.6-0.2,5.4-0.3c5.3-0.3,10.3-2.4,14.2-5.9c3.7-3.4,5.6-8.2,5.6-14.1c0.1-3.9-0.9-7.7-2.8-11.1
		c-1.8-3.1-4.6-5.5-7.9-6.9c-2.5-1.1-5.3-1.8-8-2c-2.9-0.3-7.4-0.4-13.3-0.4h-8.3V78.1z"/>
	<path class="st0" d="M783.5,24.4h14.7l32.6,53.8l32.4-53.8h14L837,91v52.5h-13.3V92.1L783.5,24.4z"/>
</g>
<g>
	<path class="st0" d="M924.4,143.5V24.4h22.5c12.2,0,22.6,1.6,31.2,4.7c8.5,3.1,16.1,8.3,22,15c9.6,10.9,14.4,24.1,14.4,39.8
		c0,15.7-4.8,29-14.4,39.8c-6,6.8-13.6,11.9-22.1,15c-8.5,3.1-18.9,4.7-31.1,4.7H924.4z M937.5,131h9.2c9.4,0,17.5-1.1,24.3-3.2
		c6.8-2.1,12.9-6,17.8-11.2c7.9-8.3,11.9-19.2,11.9-32.7c0-13.5-4-24.4-11.9-32.7c-4.9-5.2-11-9.1-17.8-11.2
		c-6.8-2.1-14.9-3.2-24.3-3.2h-9.2V131z"/>
	<path class="st0" d="M1061,143.5V24.4h63.7v12h-50.6v38.6h48.1v11.9h-48.1v44.8h50.6v11.9H1061z"/>
	<path class="st0" d="M1171.9,143.5V24.4h13.1v107.2h45.8v11.9H1171.9z"/>
	<path class="st0" d="M1271.7,143.5V24.4h13.1v119.1H1271.7z"/>
	<path class="st0" d="M1323.5,24.4h14.7l36.8,91.8l36.2-91.8h14.1l-50.6,124.2L1323.5,24.4z"/>
	<path class="st0" d="M1464.1,143.5V24.4h63.7v12h-50.6v38.6h48.1v11.9h-48.1v44.8h50.6v11.9H1464.1z"/>
	<path class="st0" d="M1575,143.5V24.4h16c2.3,0,4.8,0,7.5,0.1c2.7,0.1,5.6,0.1,8.8,0.2c10.9,0.5,19.3,3.7,25.5,9.7
		c6.1,6,9.2,13.7,9.2,23c0,8.5-2.5,15.7-7.5,21.4c-5,5.7-11.8,9.3-20.5,10.7l35.9,54h-16l-34.4-52.9h-11.3v52.9H1575z M1588.1,78.1
		h9.8c1.7,0,3.4,0,5.2-0.1c1.8-0.1,3.6-0.2,5.4-0.3c5.3-0.3,10.3-2.4,14.2-5.9c3.7-3.4,5.6-8.2,5.6-14.1c0.1-3.9-0.9-7.7-2.8-11.1
		c-1.8-3.1-4.6-5.5-7.9-6.9c-2.5-1.1-5.3-1.8-8-2c-2.9-0.3-7.4-0.4-13.3-0.4h-8.3V78.1z"/>
	<path class="st0" d="M1671,24.4h14.7l32.6,53.8l32.4-53.8h14L1724.5,91v52.5h-13.3V92.1L1671,24.4z"/>
</g>
</svg>
