<?xml version="1.0" encoding="utf-8"?>
<!-- Generator: Adobe Illustrator 24.0.0, SVG Export Plug-In . SVG Version: 6.00 Build 0)  -->
<svg version="1.1" id="Layer_1" xmlns="http://www.w3.org/2000/svg" xmlns:xlink="http://www.w3.org/1999/xlink" x="0px" y="0px"
	 viewBox="0 0 1885.5 167" style="enable-background:new 0 0 1885.5 167;" xml:space="preserve">
<style type="text/css">
	.st0{fill:#FFFFFF;}
</style>
<title>barras</title>
<g>
	<path class="st0" d="M27.6,115l12.6-4.7c1.8,6.6,5.5,12.5,10.5,17.1c4.8,4.2,10.9,6.5,17.3,6.4h0.3c3.4,0.1,6.8-0.4,10-1.4
		c2.8-0.9,5.3-2.3,7.4-4.3c2-1.8,3.6-4,4.6-6.5c1-2.5,1.6-5.2,1.6-7.9c0.1-4.1-1.1-8.2-3.4-11.6c-2.2-3.3-5.7-6.4-10.5-9.2L56,81.7
		c-7.1-3.6-12.5-7.9-16.1-12.8c-3.7-5.1-5.6-11.2-5.5-17.5c0-3.8,0.8-7.6,2.3-11.1c1.6-3.6,3.7-6.8,6.5-9.6c3.1-3,6.7-5.2,10.7-6.7
		c4.6-1.7,9.4-2.6,14.3-2.5c4.3,0,8.5,0.7,12.5,2c3.6,1.2,7,3.1,9.9,5.6c2.6,2.3,5,4.9,7,7.7c1.9,2.8,3.5,5.8,4.6,8.9l-12,4.9
		c-0.8-2-1.9-4-3.1-5.8c-1.3-1.9-2.8-3.7-4.6-5.3c-1.9-1.7-4.1-3.1-6.6-4c-2.7-1-5.5-1.5-8.4-1.5c-6.1,0-10.9,1.6-14.4,4.9
		c-3.4,3.1-5.3,7.5-5.2,12c-0.1,3.9,1.2,7.8,3.8,10.8c3.1,3.2,6.7,5.9,10.7,7.9l21.7,10.9c7.3,3.8,12.7,8.3,16.3,13.7
		c3.7,5.4,5.6,11.9,5.4,18.4c0,4.5-0.8,8.9-2.4,13c-1.6,4-4,7.6-7,10.6c-3.4,3.3-7.5,5.8-12,7.3c-5.4,1.8-11,2.7-16.7,2.7
		c-10.1,0-18.7-3-25.7-8.9C35,131.6,30,123.8,27.6,115z"/>
	<path class="st0" d="M151.9,143.5V24.4h31.9c11.1,0,20.1,3,27,9c6.9,6,10.4,14,10.4,24c0,10.4-3.4,18.5-10.1,24.4
		c-6.7,5.9-15.7,8.8-27,8.8H165v52.9H151.9z M165,78.1h18.8c7.4,0,13.2-1.8,17.4-5.4c4.3-3.6,6.4-8.6,6.4-15.2
		c0-6.5-2.1-11.6-6.2-15.2c-4.1-3.6-10.2-5.4-18.1-5.4H165V78.1z"/>
	<path class="st0" d="M264.8,143.5V24.4h13.1v119.1H264.8z"/>
	<path class="st0" d="M316.5,143.5l53.8-122.9l53.8,122.9h-14.7l-14.3-33.6h-50l-14.3,33.6H316.5z M350.2,98h40l-19.9-47.7L350.2,98
		z"/>
	<path class="st0" d="M462.9,143.5V22.6l87.3,91.3V24.4h13.1v121.4L476,54.2v89.3H462.9z"/>
	<path class="st0" d="M601.9,143.5l53.8-122.9l53.8,122.9H695l-14.3-33.6h-50l-14.3,33.6H601.9z M635.7,98h40l-19.9-47.7L635.7,98z"
		/>
	<path class="st0" d="M719.5,36.3v-12h80.4v12h-33.6v107.2H753V36.3H719.5z"/>
	<path class="st0" d="M809.7,143.5l53.8-122.9l53.8,122.9h-14.7l-14.3-33.6h-50l-14.3,33.6H809.7z M843.5,98h40l-19.9-47.7L843.5,98
		z"/>
</g>
<g>
	<path class="st0" d="M964.7,115l12.6-4.7c1.8,6.6,5.5,12.5,10.5,17.1c4.8,4.2,10.9,6.5,17.3,6.4h0.3c3.4,0.1,6.8-0.4,10-1.4
		c2.8-0.9,5.3-2.3,7.4-4.3c2-1.8,3.6-4,4.6-6.5c1-2.5,1.6-5.2,1.6-7.9c0.1-4.1-1.1-8.2-3.4-11.6c-2.2-3.3-5.7-6.4-10.5-9.2
		l-22.1-11.3c-7.1-3.6-12.5-7.9-16.1-12.8c-3.7-5.1-5.6-11.2-5.5-17.5c0-3.8,0.8-7.6,2.3-11.1c1.6-3.6,3.7-6.8,6.5-9.6
		c3.1-3,6.7-5.2,10.7-6.7c4.6-1.7,9.4-2.6,14.3-2.5c4.3,0,8.5,0.7,12.5,2c3.6,1.2,7,3.1,9.9,5.6c2.6,2.3,5,4.9,7,7.7
		c1.9,2.8,3.5,5.8,4.6,8.9l-12,4.9c-0.8-2-1.9-4-3.1-5.8c-1.3-1.9-2.8-3.7-4.6-5.3c-1.9-1.7-4.1-3.1-6.6-4c-2.7-1-5.5-1.5-8.4-1.5
		c-6.1,0-10.9,1.6-14.4,4.9c-3.4,3.1-5.3,7.5-5.2,12c-0.1,3.9,1.2,7.8,3.8,10.8c3.1,3.2,6.7,5.9,10.7,7.9l21.7,10.9
		c7.3,3.8,12.7,8.3,16.3,13.7c3.7,5.4,5.6,11.9,5.4,18.4c0,4.5-0.8,8.9-2.4,13c-1.6,4-4,7.6-7,10.6c-3.4,3.3-7.5,5.8-12,7.3
		c-5.4,1.8-11,2.7-16.7,2.7c-10.1,0-18.7-3-25.7-8.9C972.2,131.6,967.1,123.8,964.7,115z"/>
	<path class="st0" d="M1089,143.5V24.4h31.9c11.1,0,20.1,3,27,9c6.9,6,10.4,14,10.4,24c0,10.4-3.4,18.5-10.1,24.4
		c-6.7,5.9-15.7,8.8-27,8.8h-19.1v52.9H1089z M1102.1,78.1h18.8c7.4,0,13.2-1.8,17.4-5.4c4.3-3.6,6.4-8.6,6.4-15.2
		c0-6.5-2.1-11.6-6.2-15.2c-4.1-3.6-10.2-5.4-18.1-5.4h-18.4V78.1z"/>
	<path class="st0" d="M1201.9,143.5V24.4h13.1v119.1H1201.9z"/>
	<path class="st0" d="M1253.6,143.5l53.8-122.9l53.8,122.9h-14.7l-14.3-33.6h-50l-14.3,33.6H1253.6z M1287.4,98h40l-19.9-47.7
		L1287.4,98z"/>
	<path class="st0" d="M1400,143.5V22.6l87.3,91.3V24.4h13.1v121.4l-87.3-91.5v89.3H1400z"/>
	<path class="st0" d="M1539,143.5l53.8-122.9l53.8,122.9h-14.7l-14.3-33.6h-50l-14.3,33.6H1539z M1572.8,98h40l-19.9-47.7L1572.8,98
		z"/>
	<path class="st0" d="M1656.6,36.3v-12h80.4v12h-33.6v107.2h-13.3V36.3H1656.6z"/>
	<path class="st0" d="M1746.8,143.5l53.8-122.9l53.8,122.9h-14.7l-14.3-33.6h-50l-14.3,33.6H1746.8z M1780.6,98h40l-19.9-47.7
		L1780.6,98z"/>
</g>
</svg>
