<svg id="Layer_1" data-name="Layer 1" xmlns="http://www.w3.org/2000/svg" viewBox="0 0 993.74375 167"><defs><style>.cls-1{isolation:isolate;}.cls-2{fill:#fff;}</style></defs><title>homepage</title><g class="cls-1"><path class="cls-2" d="M27.62158,115.00565l12.5752-4.70606a35.78391,35.78391,0,0,0,10.53076,17.08789,25.778,25.778,0,0,0,17.31982,6.44239h.3086a32.068,32.068,0,0,0,9.99072-1.42676,19.92574,19.92574,0,0,0,7.44482-4.28223,18.82314,18.82314,0,0,0,4.62891-6.48047,20.88376,20.88376,0,0,0,1.62012-7.86914,20.22127,20.22127,0,0,0-3.356-11.64941q-3.35595-4.93653-10.53076-9.18018L56.01221,81.678q-10.64649-5.39942-16.124-12.80664a28.63211,28.63211,0,0,1-5.47754-17.51269A27.57535,27.57535,0,0,1,36.7251,40.2493a31.48356,31.48356,0,0,1,6.48047-9.56641,30.17986,30.17986,0,0,1,10.685-6.67334,39.56124,39.56124,0,0,1,14.311-2.50732,37.272,37.272,0,0,1,12.498,2.04443,30.27833,30.27833,0,0,1,9.875,5.59327,41.78989,41.78989,0,0,1,6.98193,7.71484A37.77306,37.77306,0,0,1,102.147,45.804l-11.958,4.9375A30.82628,30.82628,0,0,0,87.103,44.91678a31.74616,31.74616,0,0,0-4.55176-5.28467A20.81,20.81,0,0,0,75.99365,35.659a22.95121,22.95121,0,0,0-8.40918-1.5044q-9.18163,0-14.38818,4.86036a15.80094,15.80094,0,0,0-5.20752,12.03515,15.56875,15.56875,0,0,0,3.81885,10.76221A37.81189,37.81189,0,0,0,62.49268,69.72L84.17139,80.59793q10.87792,5.63233,16.31689,13.65479a32.08037,32.08037,0,0,1,5.439,18.43848,34.99382,34.99382,0,0,1-2.39161,13.03808,31.22642,31.22642,0,0,1-7.0205,10.64649,32.04535,32.04535,0,0,1-12.03516,7.291,49.31245,49.31245,0,0,1-16.74121,2.66113q-15.12159,0-25.729-8.94921A44.353,44.353,0,0,1,27.62158,115.00565Z"/><path class="cls-2" d="M151.87939,143.47342V24.35672h31.93946q16.58642,0,27.00195,8.9878,10.415,8.98827,10.415,24.03173,0,15.58447-10.06738,24.37891-10.06934,8.79492-27.041,8.79492H164.99463v52.92334ZM164.99463,78.052h18.82422q11.03173,0,17.43554-5.36182,6.40284-5.36133,6.40332-15.15967,0-9.79687-6.21-15.15967-6.2124-5.36133-18.09179-5.36181H164.99463Z"/><path class="cls-2" d="M264.79639,143.47342V24.35672h13.11523v119.1167Z"/><path class="cls-2" d="M316.45752,143.47342l53.84961-122.897,53.84961,122.897h-14.6582L395.14893,109.8367H345.15674l-14.34961,33.63672Zm33.791-45.51758h39.96289L370.30713,50.2786Z"/><path class="cls-2" d="M462.85693,143.47342V22.58231l87.25537,91.34326V24.35672h13.11524v121.354L475.97266,54.21317v89.26025Z"/><path class="cls-2" d="M601.92773,143.47342l53.84961-122.897,53.84961,122.897h-14.6582L680.61914,109.8367H630.627l-14.34961,33.63672Zm33.791-45.51758h39.96289L655.77734,50.2786Z"/><path class="cls-2" d="M719.47363,36.31473v-11.958H799.8623v11.958H766.22559V143.47342H752.95605V36.31473Z"/><path class="cls-2" d="M809.708,143.47342l53.84961-122.897,53.84961,122.897H902.749L888.39941,109.8367H838.40723l-14.34961,33.63672Zm33.791-45.51758h39.96289L863.55762,50.2786Z"/></g></svg>