<svg id="Layer_1" data-name="Layer 1" xmlns="http://www.w3.org/2000/svg" viewBox="0 0 867.04107 167"><defs><style>.cls-1{isolation:isolate;}.cls-2{fill:#e8361b;}</style></defs><title>homepage-hover</title><g class="cls-1"><path class="cls-2" d="M21.7583,36.3162v-11.958H102.147v11.958H68.51025V143.47538H55.24072V36.3162Z"/><path class="cls-2" d="M132.51514,24.35819h14.19531l29.39355,88.335L211.05225,23.741l35.25683,88.95215,29.85645-88.335h13.26953L247.08057,147.71854,211.05225,55.6033l-36.64551,92.11524Z"/><path class="cls-2" d="M329.13818,143.47538V24.35819h13.11524V143.47538Z"/><path class="cls-2" d="M381.10791,36.3162v-11.958h80.38867v11.958H427.85986V143.47538H414.59033V36.3162Z"/><path class="cls-2" d="M485.38379,36.3162v-11.958h80.38867v11.958H532.13574V143.47538H518.86621V36.3162Z"/><path class="cls-2" d="M604.78125,143.47538V24.35819h63.72461v11.958H617.89648V74.89041H665.96V86.77127H617.89648v44.82325h50.60938v11.88086Z"/><path class="cls-2" d="M715.69238,143.47538V24.35819h15.96973q3.47168,0,7.52246.07715,4.04883.07762,8.75586.23144,16.27734.69434,25.459,9.7207,9.18018,9.02637,9.18067,22.99024,0,12.80712-7.52246,21.37012-7.52051,8.56347-20.48242,10.72363l35.874,54.00391H774.47949l-34.4082-52.92383H728.80762v52.92383ZM728.80762,78.0535h9.79785q2.54589,0,5.24609-.11621,2.69972-.11573,5.40039-.34668a23.18344,23.18344,0,0,0,14.19532-5.94043q5.55468-5.168,5.55468-14.11816a21.46222,21.46222,0,0,0-2.77734-11.10938,16.70943,16.70943,0,0,0-7.86914-6.94336,25.56815,25.56815,0,0,0-8.02344-2.04492q-4.39746-.42334-13.26953-.42383h-8.25488Z"/></g></svg>